# xmcd
#
# Track frame offsets:
#	150
#	17205
#	33102
#	50114
#	71487
#	91364
#	107822
#	127260
#	147908
#	170163
#	188366
#	203727
#	212542
#	238090
#	257586
#	276420
#	293493
#
# Disc length: 4110 seconds
#
# Revision: 0
# Processed by: cddbd v1.5.1PL2 Copyright (c) Steve Scherf et al.
# Submitted via: EasyCDDAExtractor 8.1.2.3
#
DISCID=00100c11
DTITLE=Wu-Tang Clan - Wu chronicles 2
DYEAR=1999
DGENRE=Rap
TTITLE0=Above the Clouds
TTITLE1=Re-Up
TTITLE2=Hip Hop Fury
TTITLE3=Got's like come on Thru
TTITLE4=In Trouble
TTITLE5=Three Amigos (If it's on)
TTITLE6=N.Y.C. Everything
TTITLE7=Rumble
TTITLE8=Dangerous Mindz
TTITLE9=To the Rescue
TTITLE10=Greyhound Part II. (GZA rmx)
TTITLE11=Catechism
TTITLE12=Left and Right
TTITLE13=Eyes a Bleed (RZA rmx)
TTITLE14=Hard to Kill
TTITLE15=Wu-Tang Clan Live Freestyle
TTITLE16=Only 4 my Niggaz
EXTD=
EXTT0=
EXTT1=
EXTT2=
EXTT3=
EXTT4=
EXTT5=
EXTT6=
EXTT7=
EXTT8=
EXTT9=
EXTT10=
EXTT11=
EXTT12=
EXTT13=
EXTT14=
EXTT15=
EXTT16=
PLAYORDER=
